<svg width="50" height="50" viewBox="0 0 50 50" fill="none" xmlns="http://www.w3.org/2000/svg">
<circle cx="25" cy="25" r="25" fill="#060206"/>
<path d="M17.7024 31.0126C23.3311 33.4868 28.1212 33.9687 33.5494 30.1176C33.5096 30.1848 32.4359 31.9765 29.6122 32.8947C30.2087 33.813 31.024 34.8656 31.024 34.8656C32.8336 34.8656 34.6033 34.2833 36.1344 33.1635C37.3275 32.2676 38.0035 30.7223 37.8643 29.1098C37.6257 26.355 37.049 23.6674 36.1543 21.0919C35.0209 17.7324 32.2967 15.4032 29.135 15.0672C28.8566 15.0448 28.6578 15.0448 28.5385 15.0448L28.2203 15.4031C31.8592 16.5678 33.6688 18.3818 33.7085 18.4491C28.1209 15.2687 21.5192 15.224 15.8918 18.3147C15.8918 18.3147 17.6814 16.3214 21.6384 15.2687L21.3998 15C20.9822 15 20.5845 15.0448 20.167 15.112C17.2439 15.6719 14.7981 17.9339 13.7442 21.047C12.8295 23.7346 12.233 26.5565 12.0143 29.4233C11.895 30.9462 12.5313 32.4468 13.6448 33.3203C15.1163 34.4177 16.8661 35 18.6358 35C18.6358 35 19.3517 33.9473 20.0676 33.0067C17.3831 32.1108 16.2895 30.3191 16.2696 30.2519L16.7748 30.5425C17.0768 30.7163 17.3864 30.8737 17.7024 31.0126ZM20.8232 29.065C19.5307 29.0201 18.5165 27.7884 18.5563 26.3102C18.5961 24.9216 19.5903 23.8018 20.8232 23.757C22.1157 23.8018 23.1298 25.0336 23.09 26.5118C23.0304 27.9004 22.056 29.0202 20.8232 29.065ZM28.9361 29.065C27.6436 29.0201 26.6295 27.7884 26.6693 26.3102C26.709 24.9216 27.7033 23.8018 28.9361 23.757C30.2286 23.8018 31.2428 25.0336 31.203 26.5118C31.1632 27.9004 30.169 29.0202 28.9361 29.065Z" fill="#D8CFD7"/>
</svg>
