<svg width="50" height="50" viewBox="0 0 50 50" fill="none" xmlns="http://www.w3.org/2000/svg">
<circle cx="25" cy="25" r="25" fill="#060206"/>
<path d="M34.5017 17.0746C34.5017 17.0746 33.0978 15.4858 30.641 15.5581C27.735 15.65 25.0326 17.3109 25.3414 21.5783C25.3414 21.5783 20.9613 22.8256 14.1455 16.766C14.1455 16.766 11.9554 20.1077 15.8301 23.2589C15.8301 23.2589 14.7421 23.5412 13.2891 22.7862C13.2891 22.7862 12.51 25.6092 17.5008 27.7495C17.5008 27.7495 15.8161 28.1959 15.051 27.7495C15.051 27.7495 15.4932 30.7497 19.9786 31.4653C19.9786 31.4653 17.6762 33.6056 12.2222 33.5465C12.2222 33.5465 23.5585 38.9692 31.4132 31.9971C37.0287 27.0207 36.2495 20.3768 36.2495 20.3768C36.2495 20.3768 37.8991 19.9042 38.8888 18.2235C38.8888 18.2235 37.0147 18.775 35.9337 18.683C35.9337 18.683 37.9974 17.4751 38.1588 16.0504C38.1518 16.0504 36.3899 17.2256 34.5017 17.0746Z" fill="#D8CFD7"/>
</svg>
